Coordinates
version=1
nRows=21
nColumns=33
inDegrees=yes

Units are S.I. units (second, meters, Newtons, ...)
Angles are in degrees.

endheader
time	ground_thorax_rot_x	ground_thorax_rot_y	ground_thorax_rot_z	ground_thorax_tx	ground_thorax_ty	ground_thorax_tz	clav_prot_r	clav_elev_r	scapula_abduction_r	scapula_elevation_r	scapula_upward_rot_r	scapula_winging_r	shoulder_elv_r	plane_of_elev_r	axial_rot_r	elbow_flexion_r	pro_sup_r	wrist_flex_r	wrist_dev_r	clav_prot_l	clav_elev_l	scapula_abduction_l	scapula_elevation_l	scapula_upward_rot_l	scapula_winging_l	shoulder_elv_l	plane_of_elev_l	axial_rot_l	elbow_flexion_l	pro_sup_l	wrist_flex_l	wrist_dev_l
      2.94000000	      1.70149799	      3.12905823	     11.50929448	     -0.11654778	      1.03129788	      0.02634255	      8.38765532	      8.11683117	     31.68428451	      2.49603561	     29.04816323	    -15.09104447	     23.81969377	    -55.48029732	     61.29638416	     52.04983798	    -42.36187468	     30.19769261	    -24.99999983	     17.04983659	    -11.98195445	    -24.89068731	    -11.15147629	    -37.04827297	      4.13468480	     66.45542139	    -20.44914908	      0.72901168	     55.59713942	      0.35053555	     27.04540022	     -4.90303072
      2.95000000	      1.29799107	      2.71582341	     11.39675059	     -0.11634289	      1.03116438	      0.02531824	      8.88004805	      7.22270551	     33.00031187	      1.67433108	     29.39729865	    -15.43155113	     22.95670420	    -53.68106802	     63.33595575	     48.25878370	    -43.59154159	     30.01591428	    -24.99999983	     17.30847728	    -12.18863921	    -25.18879049	    -10.64407124	    -36.37531347	      4.32326147	     66.22097760	    -19.53858436	      1.24907703	     53.42997861	      0.37993509	     26.97234873	     -4.53797025
      2.96000000	     -1.64560012	      2.33440651	     10.99490010	     -0.11637138	      1.03004947	      0.01271832	     14.22505312	    -10.95458965	     32.49095959	     -9.04055163	     14.45478272	     -9.56056222	    -13.78733810	    -65.03112908	    121.73209835	    -63.04809179	   -157.97025889	      2.02439745	      8.47791820	     17.78164983	     -7.59473528	    -25.81539167	    -12.77810047	    -32.17625212	      5.67013681	     61.87745614	    -16.39590079	      1.74924803	     51.04652121	      0.59260560	     27.11545576	     -2.20994553
      2.97000000	     -1.90400690	      2.32703896	     10.71405461	     -0.11534375	      1.03018660	      0.01223826	     14.29001345	    -11.58173249	     33.14926886	     -9.87522842	     15.36943553	     -9.45029995	    -12.76575764	    -64.28686322	    121.97843603	    -60.69637602	   -157.61819026	      1.44063689	      8.57633487	     18.12694192	     -8.29263547	    -26.31318803	    -11.84109046	    -31.56140513	      5.94025141	     62.09980814	    -15.53221467	      1.74278197	     48.47335980	      0.74337281	     27.17163655	     -1.84402596
      2.98000000	     -2.16299888	      2.26267184	     10.43810898	     -0.11431685	      1.02998450	      0.01165288	     14.41502206	    -12.07631391	     33.88893659	    -10.57593617	     16.24691985	     -9.43505794	    -11.57161774	    -63.46812236	    122.43365865	    -58.25576429	   -157.17964506	      0.93559077	      8.76038436	     18.49273322	     -8.65544832	    -26.85684697	    -11.13892296	    -30.80509475	      6.27711579	     61.91463811	    -14.36024971	      1.87010444	     45.58694951	      0.80226752	     27.36678262	     -1.53027258
      2.99000000	     -2.40246168	      2.18525759	     10.42677117	     -0.11364762	      1.02897147	      0.01087159	     14.64270012	    -12.16115928	     34.52127160	    -10.77425356	     16.67241347	     -9.63686737	     -9.59196078	    -62.37366844	    123.94948642	    -55.74031665	   -156.04307895	      0.65899523	      9.10138912	     19.11029356	     -8.52681297	    -27.86154017	    -10.80795347	    -29.93241419	      6.93698901	     60.92921388	    -12.84388113	      2.17729154	     42.35469161	      0.74835506	     27.96025304	     -1.61573358
      3.00000000	     -2.60779223	      2.10247316	     10.37955562	     -0.11269879	      1.02910534	      0.01031511	     14.86122921	    -12.87154957	     35.21227432	    -11.55891567	     17.24808463	     -9.49067646	     -8.65827748	    -61.75843542	    123.90510373	    -53.32042726	   -155.80045043	      0.18891829	      9.14589679	     19.44593585	     -9.22509943	    -28.35769102	     -9.92443534	    -29.41427459	      7.16235074	     61.03020156	    -12.16474891	      1.87383214	     39.66662399	      1.10476900	     27.89178930	     -1.20665033
      3.01000000	     -2.90329703	      1.92680706	     10.12845887	     -0.11161324	      1.02844801	      0.00954344	     14.96016267	    -13.10864482	     35.80952108	    -11.97209185	     17.94824189	     -9.54782042	     -7.13557424	    -60.75964182	    125.01483291	    -50.75615885	   -154.77383520	      0.13186675	      9.09518797	     19.93664214	     -9.06952793	    -29.16867533	     -9.61288259	    -28.52012431	      7.72467948	     60.17566684	    -10.69685741	      2.52435620	     36.51050281	      1.43043024	     27.77828731	     -1.33302363
      3.02000000	     -3.09919586	      1.88332463	      9.95612220	     -0.11064465	      1.02851948	      0.00892971	     15.23005605	    -13.70255212	     36.52645332	    -12.62416685	     18.43822425	     -9.46130611	     -6.19963180	    -60.12688895	    124.93077250	    -48.57652605	   -154.49386556	     -0.26201574	      9.05493464	     20.33269256	     -9.71651453	    -29.77459714	     -8.78140060	    -28.00867802	      8.00151303	     60.34358559	    -10.06261998	      1.93427681	     33.99123480	      1.84820112	     27.64871082	     -0.98167107
      3.03000000	     -3.31305501	      1.77946575	      9.75750499	     -0.10957848	      1.02858029	      0.00827213	     15.44596296	    -14.19924536	     37.22593038	    -13.22148347	     19.02927690	     -9.40142556	     -5.30918264	    -59.48867443	    124.99885644	    -46.34852601	   -154.11760242	     -0.60268951	      8.94998827	     20.71358316	    -10.18360822	    -30.36854616	     -8.11280512	    -27.49926269	      8.29289668	     60.35010822	     -9.35230749	      1.52723680	     31.54377130	      2.22068869	     27.40910652	     -0.70063876
      3.04000000	     -3.55589361	      1.67308277	      9.65720178	     -0.10883662	      1.02756108	      0.00762761	     15.55407354	    -13.86487084	     37.75337183	    -13.07643350	     19.55331717	     -9.79592323	     -4.04070436	    -58.10979494	    126.04995566	    -43.70102743	   -152.26343038	     -0.18276121	      8.07938991	     21.45629224	     -9.85861048	    -31.64218912	     -8.12600260	    -27.00529788	      9.11874721	     59.49413291	     -8.11421394	      1.46723463	     29.18578041	      2.47227638	     25.80219292	     -1.28244304
      3.05000000	     -3.70240376	      1.62858439	      9.42175806	     -0.10790004	      1.02777877	      0.00694705	     15.82276093	    -14.35490936	     38.48286868	    -13.63685032	     20.06244167	     -9.76093942	     -3.28687631	    -57.73076328	    125.97399185	    -41.92301302	   -151.95708131	     -0.51836923	      7.99577291	     21.90210058	    -10.41292805	    -32.33649997	     -7.50578820	    -26.75858673	      9.42681858	     59.77997248	     -7.70964296	      0.36648813	     27.49632714	      2.77282163	     25.52739890	     -0.99223195
      3.06000000	     -3.86210091	      1.53635343	      9.25155062	     -0.10701688	      1.02804647	      0.00631239	     16.04052492	    -14.71603385	     39.15796387	    -14.09336610	     20.60112005	     -9.76986233	     -2.63170078	    -57.25901212	    125.96033895	    -40.06212281	   -151.53509355	     -0.83966842	      7.80020422	     22.32706478	    -10.84469963	    -33.00062243	     -7.01934719	    -26.56331307	      9.73238047	     59.93754328	     -7.27615555	     -0.60140897	     25.88297178	      2.99605087	     25.03159127	     -0.73647270
      3.07000000	     -3.94008368	      1.48206961	      9.20917869	     -0.10635191	      1.02752130	      0.00597530	     16.14440095	    -14.12818648	     39.83557483	    -13.77878999	     21.33433033	    -10.37633764	     -2.23788257	    -56.17068938	    126.19234512	    -37.82929298	   -149.19256474	     -0.60808507	      6.40600689	     23.11570856	    -10.82609316	    -34.31527036	     -6.95121253	    -26.46971930	     10.51271190	     59.21218736	     -6.10786929	     -0.64091028	     23.80153454	      2.74491167	     22.23543780	     -0.80243541
      3.08000000	     -3.99441589	      1.41962576	      8.99543586	     -0.10533257	      1.02824723	      0.00551795	     16.33867570	    -14.45963922	     40.41962942	    -14.18140802	     21.78667335	    -10.37136940	     -1.76958478	    -55.91782065	    126.00146638	    -36.55994839	   -148.88912407	     -0.90409916	      6.35665165	     23.44597958	    -11.41392498	    -34.79800130	     -6.27320384	    -26.13225319	     10.68325926	     59.22640148	     -5.57796480	     -1.04593667	     21.78864680	      3.00569401	     22.02087640	     -0.39574404
      3.09000000	     -4.02717760	      1.30797425	      8.81449138	     -0.10435650	      1.02900389	      0.00511559	     16.46459131	    -14.65737291	     40.97177172	    -14.49570973	     22.33953351	    -10.41962000	     -1.41136023	    -55.64146014	    125.88927834	    -35.25975581	   -148.40284324	     -1.24082252	      6.17773568	     23.72795826	    -11.87721407	    -35.21535740	     -5.66010688	    -25.69609274	     10.84268038	     58.95363268	     -4.79118218	     -0.74830921	     19.39010678	      3.39775836	     21.64936224	      0.00455817
      3.10000000	     -3.91906252	      1.17943357	      8.79499727	     -0.10415225	      1.02793723	      0.00502584	     17.04383462	    -13.46550305	     42.60642758	    -13.70100539	     23.33721890	    -11.85719940	     -1.89242611	    -54.96776058	    125.20360436	    -34.04178330	   -144.94409056	     -1.44721895	      5.19488517	     24.76279563	    -11.46908398	    -36.97961841	     -5.87107679	    -25.51620772	     12.02089094	     57.56734330	     -2.82806628	      1.53185827	     16.84765149	      6.12979070	     19.75623641	     -0.90264048
      3.11000000	     -3.93198316	      1.07094106	      8.62070875	     -0.10316208	      1.02892230	      0.00471376	     17.02018793	    -13.64754781	     42.93303366	    -14.00213312	     23.89280409	    -11.80466316	     -1.75747505	    -54.87032209	    125.10485168	    -33.16274724	   -144.62089631	     -1.70178884	      5.29511608	     24.93266630	    -11.97147488	    -37.20489896	     -5.24457387	    -25.09985544	     12.05090276	     57.46701264	     -2.33348778	      2.03789529	     14.84693801	      6.54461221	     19.73102640	     -0.60280659
      3.12000000	     -3.88493310	      0.86810711	      8.24394972	     -0.10214502	      1.02870972	      0.00445960	     16.99359262	    -13.04621588	     43.76569779	    -13.79738297	     25.12565915	    -12.39699482	     -2.16002574	    -54.77623558	    125.14741852	    -32.53876677	   -142.68634260	     -2.17503134	      5.18455489	     25.28851733	    -11.66677759	    -37.84144562	     -5.37009293	    -24.85515261	     12.53334091	     56.89609643	     -1.05362028	      3.78768929	     13.33434028	      8.20938072	     18.99649502	     -1.03982024
      3.13000000	     -3.87086155	      0.83193850	      8.26845094	     -0.10184115	      1.02934627	      0.00428465	     17.17600024	    -13.02825241	     44.11657740	    -13.79914416	     25.22641800	    -12.56643352	     -2.08516457	    -54.57508537	    124.84904641	    -32.12783512	   -142.24605644	     -2.33943299	      5.22190275	     25.50443806	    -12.04374868	    -38.14538502	     -5.00580136	    -24.77827126	     12.62324908	     56.90923540	     -0.90671397	      3.50823294	     12.34368158	      8.72143643	     18.85184323	     -0.97790344
      3.14000000	     -3.78979212	      0.78581668	      8.10146518	     -0.10151176	      1.02963428	      0.00412450	     17.24119296	    -12.67931709	     44.60791334	    -13.63093322	     25.76747454	    -12.94171649	     -2.18413412	    -54.47489369	    124.72735485	    -31.74506087	   -141.17148971	     -2.59465525	      5.18773321	     25.74361760	    -12.16462579	    -38.52281645	     -4.85945728	    -24.70822984	     12.82767385	     56.79566217	     -0.47834361	      3.73356328	     11.52922863	      9.37893195	     18.36803245	     -1.08228352
